<svg xmlns="http://www.w3.org/2000/svg" xmlns:xlink="http://www.w3.org/1999/xlink" version="1.1" width="1000" height="1000" viewBox="0 0 1000 1000" xml:space="preserve">
<desc>Created with Fabric.js 3.5.0</desc>
<defs>
</defs>
<rect x="0" y="0" width="100%" height="100%" fill="rgba(0,0,0,0)"/>
<g transform="matrix(0.4422 0 0 0.4422 500.0013 500.0002)" id="690946">
<g style="" vector-effect="non-scaling-stroke">
		<g transform="matrix(1 0 0 1 -118.6 -10.9)" id="Layer">
<path style="stroke: none; stroke-width: 1; stroke-dasharray: none; stroke-linecap: butt; stroke-dashoffset: 0; stroke-linejoin: miter; stroke-miterlimit: 4; is-custom-font: none; font-file-url: none; fill: rgb(255,255,255); fill-rule: evenodd; opacity: 1;" transform=" translate(-672.9, -134.6)" d="m 744.3 120.2 v 93 h -40.8 l -3.4 -20.4 c -10.4 14.7 -27.6 23.1 -47.3 23.1 c -30 0 -51.3 -20.3 -51.3 -46.1 v -1.9 c 0 -27.2 18.6 -46.9 63.7 -51.7 l 18.1 -1.9 c 10.3 -1 14.6 -3.9 14.6 -9.3 v -0.5 c 0 -7.7 -6.9 -13.6 -22.6 -13.6 c -13.8 0 -32.6 5.6 -55.4 18.4 l -14.6 -36.3 c 26.2 -14.1 47.5 -19.7 67.9 -19.7 c 45.9 0 71.1 22.9 71.1 66.9 z m -46.4 32.3 v -11.8 c -5.9 3.6 -12.4 5.5 -22.8 7 l -7.2 1 c -16.5 2.4 -21 8.3 -21 16.3 v 0.5 c 0 9.1 7.2 14.9 22.3 14.9 c 17.5 0 28.7 -10.1 28.7 -27.9 z" stroke-linecap="round"/>
</g>
		<g transform="matrix(1 0 0 1 -607.45 -12.2)" id="Layer">
<path style="stroke: none; stroke-width: 1; stroke-dasharray: none; stroke-linecap: butt; stroke-dashoffset: 0; stroke-linejoin: miter; stroke-miterlimit: 4; is-custom-font: none; font-file-url: none; fill: rgb(255,255,255); fill-rule: nonzero; opacity: 1;" transform=" translate(-184.05, -133.3)" d="m 183.8 212.2 l -52.4 52.5 l -52.2 -52.5 l 131.1 -131.7 l -26.1 -26.1 l 52.3 -52.5 l 52.4 52.5 l -131.2 131.6 z" stroke-linecap="round"/>
</g>
		<g transform="matrix(1 0 0 1 -698.9 -51.55)" id="Layer">
<path style="stroke: none; stroke-width: 1; stroke-dasharray: none; stroke-linecap: butt; stroke-dashoffset: 0; stroke-linejoin: miter; stroke-miterlimit: 4; is-custom-font: none; font-file-url: none; fill: rgb(255,255,255); fill-rule: nonzero; opacity: 1;" transform=" translate(-92.6, -93.95)" d="m 0.9 133.5 l 131.1 -131.7 l 52.3 52.6 l -131.1 131.7 z" stroke-linecap="round"/>
</g>
		<g transform="matrix(1 0 0 1 -516.05 27.2)" id="Layer">
<path style="stroke: none; stroke-width: 1; stroke-dasharray: none; stroke-linecap: butt; stroke-dashoffset: 0; stroke-linejoin: miter; stroke-miterlimit: 4; is-custom-font: none; font-file-url: none; fill: rgb(255,255,255); fill-rule: nonzero; opacity: 1;" transform=" translate(-275.45, -172.7)" d="m 183.7 212.2 l 131.2 -131.6 l 52.3 52.5 l -131.2 131.7 z" stroke-linecap="round"/>
</g>
		<g transform="matrix(1 0 0 1 2.55 -38.9)" id="Layer">
<path style="stroke: none; stroke-width: 1; stroke-dasharray: none; stroke-linecap: butt; stroke-dashoffset: 0; stroke-linejoin: miter; stroke-miterlimit: 4; is-custom-font: none; font-file-url: none; fill: rgb(255,255,255); fill-rule: nonzero; opacity: 1;" transform=" translate(-794.05, -106.6)" d="m 770.8 0 h 46.5 v 213.2 h -46.5 z" stroke-linecap="round"/>
</g>
		<g transform="matrix(1 0 0 1 -280.2 14.4)" id="Layer">
<path style="stroke: none; stroke-width: 1; stroke-dasharray: none; stroke-linecap: butt; stroke-dashoffset: 0; stroke-linejoin: miter; stroke-miterlimit: 4; is-custom-font: none; font-file-url: none; fill: rgb(255,255,255); fill-rule: evenodd; opacity: 1;" transform=" translate(-511.3, -159.9)" d="m 523.5 53.3 c 37.1 0 67.4 33 67.4 78.6 v 5.3 c 0 45.6 -30.3 78.6 -67.4 78.6 c -19.8 0 -36.6 -8.6 -45.4 -22.3 v 73 h -46.4 v -210.5 h 40.8 l 3.6 21.4 c 9.3 -14.7 26.3 -24.1 47.4 -24.1 m 19.6 79.9 c 0 -24 -12.4 -41.3 -33.2 -41.3 c -20.7 0 -33.1 17.3 -33.1 41.3 v 2.7 c 0 24 12.4 41.3 33.1 41.3 c 20.8 0 33.2 -17.3 33.2 -41.3 z" stroke-linecap="round"/>
</g>
		<g transform="matrix(1 0 0 1 652.85 -10.9)" id="Layer">
<path style="stroke: none; stroke-width: 1; stroke-dasharray: none; stroke-linecap: butt; stroke-dashoffset: 0; stroke-linejoin: miter; stroke-miterlimit: 4; is-custom-font: none; font-file-url: none; fill: rgb(255,255,255); fill-rule: evenodd; opacity: 1;" transform=" translate(-1444.35, -134.6)" d="m 1525.3 131.9 v 5.4 c 0 45.6 -33.5 78.6 -81 78.6 c -47.5 0 -80.9 -33 -80.9 -78.6 v -5.4 c 0 -45.5 33.4 -78.6 80.9 -78.6 c 47.5 0 81 33.1 81 78.6 z m -47.8 1.4 c 0 -24 -12.5 -41.3 -33.2 -41.3 c -20.7 0 -33.2 17.3 -33.2 41.3 v 2.6 c 0 24 12.5 41.4 33.2 41.4 c 20.7 0 33.2 -17.4 33.2 -41.4 z" stroke-linecap="round"/>
</g>
		<g transform="matrix(1 0 0 1 766.65 -78.85)" id="Layer">
<path style="stroke: none; stroke-width: 1; stroke-dasharray: none; stroke-linecap: butt; stroke-dashoffset: 0; stroke-linejoin: miter; stroke-miterlimit: 4; is-custom-font: none; font-file-url: none; fill: rgb(255,255,255); fill-rule: evenodd; opacity: 1;" transform=" translate(-1558.15, -66.65)" d="m 1563.2 69.2 l 5.2 9.7 h -5.6 l -4.2 -8.3 h -5.6 v 8.3 h -5.1 v -24.5 h 10.6 c 6.2 0 9.6 3.2 9.6 7.7 v 0.8 c 0 3 -1.8 5.3 -4.9 6.3 z m -10.2 -3.1 h 5.5 c 3.2 0 4.5 -1.3 4.5 -3.4 v -0.3 c 0 -2.4 -1.3 -3.5 -4.5 -3.5 h -5.5 z" stroke-linecap="round"/>
</g>
		<g transform="matrix(1 0 0 1 766.1 -78.85)" id="Layer">
<path style="stroke: none; stroke-width: 1; stroke-dasharray: none; stroke-linecap: butt; stroke-dashoffset: 0; stroke-linejoin: miter; stroke-miterlimit: 4; is-custom-font: none; font-file-url: none; fill: rgb(255,255,255); fill-rule: evenodd; opacity: 1;" transform=" translate(-1557.6, -66.65)" d="m 1557.6 92 c -14 0 -25.2 -11.4 -25.2 -25.4 c 0 -14 11.2 -25.3 25.2 -25.3 c 13.9 0 25.2 11.3 25.2 25.3 c 0 14 -11.3 25.4 -25.2 25.4 z m 21.5 -25.4 c 0 -12.1 -9.6 -21.8 -21.5 -21.8 c -11.9 0 -21.5 9.7 -21.5 21.8 c 0 12.1 9.6 21.9 21.5 21.9 c 11.9 0 21.5 -9.8 21.5 -21.9 z" stroke-linecap="round"/>
</g>
		<g transform="matrix(1 0 0 1 412.1 -38.9)" id="Layer">
<path style="stroke: none; stroke-width: 1; stroke-dasharray: none; stroke-linecap: butt; stroke-dashoffset: 0; stroke-linejoin: miter; stroke-miterlimit: 4; is-custom-font: none; font-file-url: none; fill: rgb(255,255,255); fill-rule: nonzero; opacity: 1;" transform=" translate(-1203.6, -106.6)" d="m 1180.4 0 h 46.4 v 213.2 h -46.4 z" stroke-linecap="round"/>
</g>
		<g transform="matrix(1 0 0 1 515.45 -27.6)" id="Layer">
<path style="stroke: none; stroke-width: 1; stroke-dasharray: none; stroke-linecap: butt; stroke-dashoffset: 0; stroke-linejoin: miter; stroke-miterlimit: 4; is-custom-font: none; font-file-url: none; fill: rgb(255,255,255); fill-rule: nonzero; opacity: 1;" transform=" translate(-1306.95, -117.9)" d="m 1347.4 168.7 l 13.3 33 c -16 9.1 -35.3 14.2 -51.8 14.2 c -37.2 0 -55.7 -18.7 -55.7 -55.2 v -133.8 l 46.4 -7 v 36 h 54.7 v 36 h -54.7 v 64.3 c 0 14.4 5 21 18.6 21 c 6.9 0 19.9 -3.4 29.2 -8.5 z" stroke-linecap="round"/>
</g>
		<g transform="matrix(1 0 0 1 290.4 -10.9)" id="Layer">
<path style="stroke: none; stroke-width: 1; stroke-dasharray: none; stroke-linecap: butt; stroke-dashoffset: 0; stroke-linejoin: miter; stroke-miterlimit: 4; is-custom-font: none; font-file-url: none; fill: rgb(255,255,255); fill-rule: evenodd; opacity: 1;" transform=" translate(-1081.9, -134.6)" d="m 1153.3 120.2 v 93 h -40.9 l -3.3 -20.4 c -10.5 14.7 -27.6 23.1 -47.4 23.1 c -30 0 -51.2 -20.3 -51.2 -46.1 v -1.9 c 0 -27.2 18.6 -46.9 63.7 -51.7 l 18.1 -1.9 c 10.3 -1 14.6 -3.9 14.6 -9.3 v -0.5 c 0 -7.7 -6.9 -13.6 -22.6 -13.6 c -13.8 0 -32.7 5.6 -55.5 18.4 l -14.6 -36.3 c 26.3 -14.1 47.5 -19.7 68 -19.7 c 45.9 0 71.1 22.9 71.1 66.9 z m -46.5 32.3 v -11.8 c -5.9 3.6 -12.3 5.5 -22.8 7 l -7.1 1 c -16.5 2.4 -21 8.3 -21 16.3 v 0.5 c 0 9.1 7.1 14.9 22.3 14.9 c 17.5 0 28.6 -10.1 28.6 -27.9 z" stroke-linecap="round"/>
</g>
		<g transform="matrix(1 0 0 1 127.45 -10.9)" id="Layer">
<path style="stroke: none; stroke-width: 1; stroke-dasharray: none; stroke-linecap: butt; stroke-dashoffset: 0; stroke-linejoin: miter; stroke-miterlimit: 4; is-custom-font: none; font-file-url: none; fill: rgb(255,255,255); fill-rule: evenodd; opacity: 1;" transform=" translate(-918.95, -134.6)" d="m 999.9 131.9 v 5.4 c 0 45.6 -33.5 78.6 -81 78.6 c -47.5 0 -80.9 -33 -80.9 -78.6 v -5.4 c 0 -45.5 33.4 -78.6 80.9 -78.6 c 47.5 0 80.9 33.1 81 78.6 z m -47.8 1.4 c 0 -24 -12.5 -41.3 -33.2 -41.3 c -20.7 0 -33.2 17.3 -33.2 41.3 v 2.6 c 0 24 12.5 41.4 33.2 41.4 c 20.7 0 33.2 -17.4 33.2 -41.4 z" stroke-linecap="round"/>
</g>
		<g transform="matrix(1 0 0 1 337.25 124.8)" id="Layer">
<path style="stroke: none; stroke-width: 1; stroke-dasharray: none; stroke-linecap: butt; stroke-dashoffset: 0; stroke-linejoin: miter; stroke-miterlimit: 4; is-custom-font: none; font-file-url: none; fill: rgb(255,255,255); fill-rule: nonzero; opacity: 1;" transform=" translate(-1128.75, -270.3)" d="m 1136.9 289.5 l -16.8 -22.3 h -0.1 v 22.3 h -11 v -38.4 h 11.9 l 16.5 21.7 h 0.1 v -21.7 h 11 v 38.4 z" stroke-linecap="round"/>
</g>
		<g transform="matrix(1 0 0 1 388.95 124.8)" id="Layer">
<path style="stroke: none; stroke-width: 1; stroke-dasharray: none; stroke-linecap: butt; stroke-dashoffset: 0; stroke-linejoin: miter; stroke-miterlimit: 4; is-custom-font: none; font-file-url: none; fill: rgb(255,255,255); fill-rule: nonzero; opacity: 1;" transform=" translate(-1180.45, -270.3)" d="m 1174.5 274.1 v 6 h 23.4 l -1.2 9.4 h -33.7 v -38.4 h 33.7 v 9.3 h -22.2 v 5.2 h 17.6 v 8.5 z" stroke-linecap="round"/>
</g>
		<g transform="matrix(1 0 0 1 435 124.8)" id="Layer">
<path style="stroke: none; stroke-width: 1; stroke-dasharray: none; stroke-linecap: butt; stroke-dashoffset: 0; stroke-linejoin: miter; stroke-miterlimit: 4; is-custom-font: none; font-file-url: none; fill: rgb(255,255,255); fill-rule: nonzero; opacity: 1;" transform=" translate(-1226.5, -270.3)" d="m 1221.3 289.5 v -28.5 h -14.1 v -9.9 h 37.4 l 1.2 9.9 h -14 v 28.5 z" stroke-linecap="round"/>
</g>
		<g transform="matrix(1 0 0 1 495.75 124.8)" id="Layer">
<path style="stroke: none; stroke-width: 1; stroke-dasharray: none; stroke-linecap: butt; stroke-dashoffset: 0; stroke-linejoin: miter; stroke-miterlimit: 4; is-custom-font: none; font-file-url: none; fill: rgb(255,255,255); fill-rule: nonzero; opacity: 1;" transform=" translate(-1287.25, -270.3)" d="m 1301.8 277.7 l 5.9 -26.6 h 11.7 l -10.6 38.4 h -14 l -7 -23.3 h -1.1 l -7.1 23.3 h -15.1 l -9.4 -38.4 h 11.7 l 7 26.6 l 8.2 -26.6 h 11.7 l 7 26.6 z" stroke-linecap="round"/>
</g>
		<g transform="matrix(1 0 0 1 557.85 124.75)" id="Layer">
<path style="stroke: none; stroke-width: 1; stroke-dasharray: none; stroke-linecap: butt; stroke-dashoffset: 0; stroke-linejoin: miter; stroke-miterlimit: 4; is-custom-font: none; font-file-url: none; fill: rgb(255,255,255); fill-rule: evenodd; opacity: 1;" transform=" translate(-1349.35, -270.25)" d="m 1349.4 290.6 c -12.1 0 -21.9 -9.1 -21.9 -20.4 c 0 -11.2 9.8 -20.3 21.9 -20.3 c 12 0 21.8 9.1 21.8 20.3 c 0 11.3 -9.8 20.4 -21.8 20.4 z m 10.4 -20.4 c 0 -5.8 -4.7 -10.6 -10.4 -10.6 c -5.8 0 -10.5 4.8 -10.5 10.6 c 0 5.9 4.7 10.6 10.5 10.6 c 5.7 0 10.4 -4.7 10.4 -10.6 z" stroke-linecap="round"/>
</g>
		<g transform="matrix(1 0 0 1 611.6 124.8)" id="Layer">
<path style="stroke: none; stroke-width: 1; stroke-dasharray: none; stroke-linecap: butt; stroke-dashoffset: 0; stroke-linejoin: miter; stroke-miterlimit: 4; is-custom-font: none; font-file-url: none; fill: rgb(255,255,255); fill-rule: evenodd; opacity: 1;" transform=" translate(-1403.1, -270.3)" d="m 1383.6 251.1 h 22.3 c 10.1 0 15.1 4.8 15.1 13.8 c 0 6.1 -2.5 10.3 -7.5 12.2 l 9.1 12.4 h -13 l -7 -10.1 h -7.6 v 10.1 h -11.4 z m 20.8 19.3 c 3.8 0 5.2 -2.2 5.2 -5.1 c 0 -2.9 -1.4 -5 -5.2 -5 h -9.4 v 10.1 z" stroke-linecap="round"/>
</g>
		<g transform="matrix(1 0 0 1 665.05 124.8)" id="Layer">
<path style="stroke: none; stroke-width: 1; stroke-dasharray: none; stroke-linecap: butt; stroke-dashoffset: 0; stroke-linejoin: miter; stroke-miterlimit: 4; is-custom-font: none; font-file-url: none; fill: rgb(255,255,255); fill-rule: nonzero; opacity: 1;" transform=" translate(-1456.55, -270.3)" d="m 1461.8 269.5 l 15.2 19.8 v 0.2 h -12.8 l -11.7 -14.8 h -4.7 v 14.8 h -11.7 v -38.4 h 11.7 v 14.1 h 4.7 l 10.5 -14.1 h 14 z" stroke-linecap="round"/>
</g>
		<g transform="matrix(1 0 0 1 712.55 124.7)" id="Layer">
<path style="stroke: none; stroke-width: 1; stroke-dasharray: none; stroke-linecap: butt; stroke-dashoffset: 0; stroke-linejoin: miter; stroke-miterlimit: 4; is-custom-font: none; font-file-url: none; fill: rgb(255,255,255); fill-rule: nonzero; opacity: 1;" transform=" translate(-1504.05, -270.2)" d="m 1486.3 286.9 v -10.5 h 0.1 c 6.4 3.2 12.6 4.8 18 4.8 q 6.2 0 6.2 -2.9 c 0 -2 -1.4 -2.5 -9.6 -3.8 c -8.9 -1.4 -14.9 -4.1 -14.9 -11.8 c 0 -7.2 6.3 -12.7 18.6 -12.7 c 4.9 0 10 1 14.8 3 v 10.5 h -0.1 c -4.5 -2.6 -10.6 -4.3 -15.5 -4.3 c -4.4 0 -6.1 1.1 -6.1 2.8 c 0 2.3 2.6 2.5 9.3 3.7 c 9 1.5 14.9 4 14.9 12.1 c 0 6.3 -4.6 12.6 -18.1 12.6 c -6.7 0 -12 -1.3 -17.6 -3.5 z" stroke-linecap="round"/>
</g>
</g>
</g>
</svg>
